<svg width="800" height="126" viewBox="0 0 800 126" xmlns="http://www.w3.org/2000/svg">
  <style>
<!--
    #scale {
      animation: scale 3s infinite;
    }

    @keyframes scale {
      0% {
        transform: scaleX(0);
        transform-origin: center left;
      }
      80% {
        transform: scaleX(1.5);
        transform-origin: center left;
      }
      100% {
        transform: scaleX(0);
        transform-origin: center right;
      }
    } -->

  </style>
  <g fill="none" fill-rule="evenodd">
    <path fill="#333" d="M0 0h800v126H0z"/>

    <rect fill="#BD0FE1" id="scale" x="0" y="0" width="800" height="126" transform="scale(0.58, 1)">
      <animateTransform
        attributeName="transform"
        begin="0s"
        dur="7s"
        type="scale"
        from="0 1"
        to="2 1"
        repeatCount="indefinite"


        values="
          0 1;

          0.6 1;
          0.6 1;

          0.2 1;
          0.2 1;

          0.8 1;
          0.85 1;

          0.3 1;
          0.4 1;

          0 1"
        keyTimes="
          0;

          .1;
          .2;

          .3;
          .4;

          .55;
          .7;

          .8;
          .9;

          1"

        keySplines="
        .67,0,.32,.99;
        .67,0,.32,.99;
        .67,0,.32,.99;
        .67,0,.32,.99;
        .67,0,.32,.99;
        .67,0,.32,.99;
        .67,0,.32,.99;
        .67,0,.32,.99;
        .67,0,.32,.99;"

        calcMode="spline"
      />
    </rect>

    <g style="mix-blend-mode:overlay; -webkit-mix-blend-mode:overlay;" fill="#FFF">
      <path d="M15.828 20h64.827v13.725H55.827V108H39.69V33.725H15.827M107.862 40.62c4.276 0 8.275.783 12 2.346 3.724 1.563 6.977 3.828 9.758 6.793 2.782 2.965 4.966 6.608 6.552 10.93 1.586 4.322 2.38 9.218 2.38 14.69 0 5.47-.783 10.367-2.346 14.69-1.563 4.32-3.712 7.976-6.448 10.965-2.736 2.988-5.988 5.275-9.758 6.862-3.77 1.586-7.862 2.38-12.276 2.38s-8.54-.852-12.38-2.553c-3.838-1.7-7.195-4.092-10.068-7.172-2.874-3.08-5.127-6.736-6.76-10.966-1.63-4.23-2.447-8.873-2.447-13.93 0-5.012.838-9.656 2.516-13.93 1.678-4.277 3.966-7.978 6.862-11.105 2.897-3.125 6.264-5.573 10.103-7.344 3.84-1.77 7.944-2.655 12.312-2.655zm14.965 35.035c0-3.586-.38-6.758-1.138-9.517-.76-2.758-1.828-5.092-3.208-7-1.38-1.908-3.01-3.356-4.896-4.344-1.885-.99-3.93-1.483-6.138-1.483-2.253 0-4.31.495-6.172 1.484-1.862.988-3.45 2.425-4.76 4.31-1.31 1.885-2.332 4.172-3.068 6.862-.736 2.69-1.103 5.735-1.103 9.138 0 3.402.356 6.47 1.07 9.207.71 2.736 1.734 5.07 3.068 7 1.333 1.932 2.954 3.426 4.862 4.483 1.908 1.058 4.034 1.586 6.38 1.586 4.596 0 8.263-1.863 11-5.587 2.734-3.724 4.102-9.103 4.102-16.138zM151.103 108V42.07h15.93v6.758c2.3-2.483 4.966-4.47 8-5.965 3.035-1.495 6.115-2.242 9.242-2.242 3.31 0 6.322.507 9.034 1.52 2.712 1.01 5.022 2.608 6.93 4.792 1.908 2.184 3.38 5.01 4.414 8.482 1.034 3.472 1.552 7.667 1.552 12.586v40H190.62V68.138c0-2.528-.23-4.712-.69-6.55-.46-1.84-1.104-3.346-1.93-4.52-.83-1.17-1.817-2.033-2.967-2.585-1.15-.55-2.436-.827-3.862-.827-1.976 0-3.826.39-5.55 1.172-1.724.782-3.22 1.885-4.483 3.31-1.264 1.426-2.264 3.138-3 5.138-.736 2-1.103 4.196-1.103 6.586V108h-15.93zm98.55-67.38c3.908 0 7.564.69 10.966 2.07 3.4 1.38 6.378 3.414 8.93 6.104 2.55 2.69 4.563 6.046 6.034 10.07 1.47 4.022 2.207 8.677 2.207 13.964 0 1.15-.045 2.276-.137 3.38-.092 1.103-.184 2.183-.276 3.24h-43.24c.367 3.173 1.103 5.897 2.206 8.173 1.104 2.277 2.437 4.162 4 5.656 1.563 1.494 3.3 2.598 5.207 3.31 1.908.713 3.85 1.07 5.828 1.07 2.988 0 5.92-.68 8.793-2.035 2.874-1.356 5.345-3.344 7.414-5.965l8.76 8.76c-6.668 7.907-14.99 11.86-24.966 11.86-4.736 0-9.115-.78-13.138-2.344-4.023-1.562-7.494-3.815-10.414-6.758-2.92-2.942-5.207-6.54-6.862-10.793-1.655-4.253-2.483-9.07-2.483-14.45 0-5.47.783-10.39 2.346-14.757 1.563-4.368 3.736-8.07 6.517-11.103 2.782-3.035 6.07-5.368 9.862-7 3.793-1.633 7.943-2.45 12.448-2.45zm12.345 27.242c0-2.068-.31-4.034-.93-5.896-.622-1.862-1.495-3.494-2.622-4.897-1.126-1.403-2.505-2.518-4.137-3.345-1.634-.828-3.46-1.242-5.484-1.242-1.93 0-3.713.368-5.345 1.104-1.63.735-3.056 1.77-4.275 3.103-1.218 1.333-2.207 2.943-2.965 4.828-.76 1.885-1.276 4-1.552 6.344h27.31zM423 12.69h-15.863v34.552c-.966-.966-2.058-1.862-3.276-2.69-1.217-.827-2.505-1.528-3.86-2.103-1.357-.576-2.725-1.024-4.104-1.346-1.38-.322-2.713-.483-4-.483-3.725 0-7.276.806-10.655 2.415-3.38 1.61-6.356 3.93-8.93 6.966-2.575 3.035-4.62 6.748-6.138 11.138-1.518 4.39-2.276 9.368-2.276 14.93 0 5.748.747 10.748 2.24 15 1.495 4.254 3.518 7.794 6.07 10.622 2.552 2.827 5.53 4.942 8.93 6.344 3.403 1.403 7.035 2.104 10.898 2.104 1.425 0 2.908-.184 4.448-.552 1.54-.368 3.023-.896 4.448-1.586 1.425-.69 2.747-1.54 3.965-2.552 1.22-1.01 2.196-2.184 2.93-3.517v2c0 .645.093 1.38.277 2.208.184.828.575 1.448 1.173 1.862h14.965c-.368-1.425-.667-2.816-.896-4.172-.23-1.357-.345-2.61-.345-3.76V16.76 12.69zm-15.725 61.586c0-2.758-.184-5.39-.552-7.896-.368-2.506-1.01-4.724-1.93-6.655-.92-1.93-2.196-3.46-3.83-4.587-1.63-1.126-3.71-1.69-6.24-1.69-2.207 0-4.034.357-5.483 1.07-1.448.712-2.816 1.78-4.103 3.207-3.494 3.724-5.24 9.747-5.24 18.068 0 3.954.447 7.276 1.344 9.966.897 2.688 2.058 4.86 3.483 6.516 1.426 1.655 2.977 2.85 4.655 3.586 1.68.736 3.322 1.104 4.93 1.104 1.978 0 3.76-.414 5.346-1.242 1.586-.827 2.943-2.15 4.07-3.965 1.126-1.817 2-4.162 2.62-7.036.62-2.873.93-6.356.93-10.448zM442.585 42.07h30.896v53.654h14.553V108h-46.138V95.724h15.93v-41.38h-15.24V42.07zm23.31-29.517c1.333 0 2.598.24 3.793.724 1.195.483 2.24 1.126 3.138 1.93.896.805 1.61 1.76 2.138 2.863.528 1.103.793 2.276.793 3.517 0 1.24-.265 2.414-.793 3.517-.53 1.104-1.242 2.07-2.138 2.897-.897.828-1.943 1.472-3.138 1.932-1.195.46-2.46.69-3.793.69-1.333 0-2.61-.23-3.828-.69-1.218-.46-2.276-1.104-3.172-1.93-.897-.83-1.61-1.794-2.138-2.898-.53-1.103-.793-2.276-.793-3.517 0-1.103.207-2.195.62-3.276.414-1.08 1.035-2.045 1.863-2.895.827-.85 1.862-1.54 3.103-2.07 1.24-.528 2.69-.792 4.345-.792zM297 20h57.31v13.587h-41.93V55.31h34.757v13.863H312.38v25.24h41.654V108H297M506 26.62l17.517-2.964c0 1.195-.184 2.184-.552 2.965-.368.783-.69 1.68-.965 2.69l-1.45 12.76h19.932v12.827H520c-.138 3.402-.357 6.92-.656 10.552-.298 3.63-.448 7.217-.448 10.757 0 3.586.08 6.667.242 9.24.16 2.576.505 4.668 1.034 6.277.53 1.61 1.287 2.793 2.276 3.552.988.76 2.287 1.138 3.896 1.138 1.564 0 3.633-.678 6.207-2.035 2.576-1.357 5.495-3.276 8.76-5.76l4.965 13.035c-3.862 2.76-7.643 4.885-11.344 6.38-3.7 1.494-7.367 2.24-11 2.24-3.678 0-6.838-.516-9.482-1.55-2.644-1.035-4.828-2.645-6.552-4.828-1.724-2.184-2.988-4.977-3.793-8.38-.804-3.402-1.207-7.47-1.207-12.206 0-3.172.092-7.09.276-11.758.184-4.667.53-10.218 1.035-16.655H489.93V42.07h15.104L506 26.62zm82.482 14c4.276 0 8.275.783 12 2.346 3.724 1.563 6.977 3.828 9.758 6.793 2.782 2.965 4.966 6.608 6.552 10.93 1.586 4.322 2.38 9.218 2.38 14.69 0 5.47-.783 10.367-2.346 14.69-1.563 4.32-3.712 7.976-6.448 10.965-2.736 2.988-5.988 5.275-9.758 6.862-3.77 1.586-7.862 2.38-12.276 2.38s-8.54-.852-12.38-2.553c-3.838-1.7-7.195-4.092-10.068-7.172-2.874-3.08-5.127-6.736-6.76-10.966-1.63-4.23-2.447-8.873-2.447-13.93 0-5.012.838-9.656 2.516-13.93 1.678-4.277 3.966-7.978 6.862-11.105 2.897-3.125 6.264-5.573 10.103-7.344 3.84-1.77 7.944-2.655 12.312-2.655zm14.965 35.035c0-3.586-.38-6.758-1.138-9.517-.76-2.758-1.828-5.092-3.208-7-1.38-1.908-3.01-3.356-4.896-4.344-1.885-.99-3.93-1.483-6.138-1.483-2.253 0-4.31.495-6.172 1.484-1.862.988-3.45 2.425-4.76 4.31-1.31 1.885-2.332 4.172-3.068 6.862-.736 2.69-1.103 5.735-1.103 9.138 0 3.402.356 6.47 1.07 9.207.71 2.736 1.734 5.07 3.068 7 1.333 1.932 2.953 3.426 4.862 4.483 1.908 1.058 4.034 1.586 6.38 1.586 4.596 0 8.263-1.863 11-5.587 2.734-3.724 4.102-9.103 4.102-16.138zm32.345-33.585h16.275v7.172c1.058-1.195 2.253-2.322 3.586-3.38 1.334-1.057 2.76-1.976 4.276-2.758 1.517-.782 3.114-1.39 4.792-1.827 1.678-.437 3.39-.656 5.138-.656 3.724 0 7.276.588 10.655 1.76 3.38 1.172 6.38 3 9 5.483l-7.38 15.38c-2.298-3.174-4.505-5.495-6.62-6.967-2.115-1.47-4.23-2.207-6.344-2.207-2.436 0-4.7.517-6.792 1.55-2.092 1.036-3.93 2.438-5.518 4.208-1.586 1.77-2.827 3.84-3.724 6.207-.896 2.368-1.345 4.862-1.345 7.483V108h-15.998V42.07z"/></g>
  </g>

</svg>
